<svg xmlns="http://www.w3.org/2000/svg" width="132" height="54" viewBox="0 0 132 54" fill="none"><g clip-path="url(#a)"><path fill="currentColor" d="M72 24.366H70.78v4.873H72v-4.873ZM74.166 25.71l.044 1.168v2.36h-.697v-4.872h1.061l2.367 3.34-.038-.941v-2.399h.691v4.873l-.898.006-2.53-3.535ZM80.162 24.994h-1.488v-.628h4.176v.628H81.375v4.245h-1.213v-4.245ZM83.936 24.366h3.372v.628h-2.16v1.47h1.476v.565h-1.476v1.582h2.26v.628h-3.472v-4.873ZM88.551 24.372h1.809c.377-.01.753.056 1.105.195.278.112.517.302.69.546.16.23.243.505.24.785 0 .248-.072.49-.208.697-.148.213-.352.38-.59.483a2.134 2.134 0 0 1-.904.176h-.572v-.377h.094a.986.986 0 0 0 .509-.119.722.722 0 0 0 .301-.326c.074-.164.11-.342.107-.521a1.168 1.168 0 0 0-.1-.484.734.734 0 0 0-.314-.32 1.13 1.13 0 0 0-.528-.12h-.39v4.251H88.59l-.038-4.866Zm1.42 2.512 1.255.182 1.4 2.179H91.24l-1.269-2.361ZM94.378 25.71l.044 1.168v2.36h-.697v-4.872h1.061l2.367 3.34-.037-.941v-2.399h.69v4.873l-.897.006-2.53-3.535ZM100.708 24.373h.954l1.884 4.866h-1.256l-1.413-4h.157l-1.444 4h-.722l1.84-4.866Zm-.88 3.14h2.255v.552h-2.254v-.553ZM104.896 24.994h-1.495v-.628h4.182v.628H106.108v4.245h-1.212v-4.245ZM109.881 24.366h-1.218v4.873h1.218v-4.873ZM113.592 29.32a2.61 2.61 0 0 1-1.293-.314 2.157 2.157 0 0 1-.867-.891 2.636 2.636 0 0 1-.307-1.294c-.01-.454.096-.903.307-1.306.2-.374.5-.684.867-.898.395-.22.841-.33 1.293-.32.454-.009.902.102 1.3.32.372.207.678.517.879.892.223.396.338.845.333 1.3a2.7 2.7 0 0 1-.308 1.312 2.216 2.216 0 0 1-.879.892 2.662 2.662 0 0 1-1.306.313m.032-.627a.996.996 0 0 0 .627-.208c.191-.152.333-.358.409-.59.094-.292.138-.597.131-.904a3.655 3.655 0 0 0-.119-.948 1.891 1.891 0 0 0-.395-.785.92.92 0 0 0-.704-.34.974.974 0 0 0-.628.208 1.265 1.265 0 0 0-.402.59 2.783 2.783 0 0 0-.131.91c-.002.319.038.635.119.943.067.286.2.553.389.778a.881.881 0 0 0 .71.327M118.007 25.71l.043 1.168v2.36h-.696v-4.872h1.061l2.367 3.34-.038-.941v-2.399h.691v4.873l-.898.006-2.53-3.535ZM124.336 24.373h.96l1.884 4.866h-1.256l-1.413-4h.183l-1.445 4h-.722l1.809-4.866Zm-.879 3.14h2.254v.552h-2.254v-.553ZM128.229 24.366h1.212v4.251h1.952v.622h-3.164v-4.873ZM70.781 32.04h1.771c.379-.014.755.055 1.105.2.282.115.524.309.697.559.158.245.239.531.233.822.004.296-.084.586-.252.83-.177.25-.42.448-.703.57a2.51 2.51 0 0 1-1.01.201h-.409l-.2-.577h.395c.167.004.333-.033.483-.107a.772.772 0 0 0 .308-.339 1.39 1.39 0 0 0 .107-.571 1.131 1.131 0 0 0-.114-.515.715.715 0 0 0-.32-.333 1.01 1.01 0 0 0-.515-.126H72v4.251h-1.218V32.04ZM77.902 36.987a2.55 2.55 0 0 1-1.294-.314 2.154 2.154 0 0 1-.866-.892 2.643 2.643 0 0 1-.308-1.293c-.01-.455.097-.904.308-1.306.2-.374.5-.685.866-.898.396-.22.842-.33 1.294-.32a2.63 2.63 0 0 1 1.306.32c.37.208.675.517.879.891.21.398.316.844.308 1.294a2.7 2.7 0 0 1-.308 1.312 2.223 2.223 0 0 1-.88.892c-.4.217-.85.325-1.305.314Zm.037-.628a.991.991 0 0 0 .628-.208c.19-.15.332-.354.409-.583.095-.294.142-.602.138-.91a3.998 3.998 0 0 0-.12-.949 1.883 1.883 0 0 0-.401-.785.916.916 0 0 0-.723-.32.973.973 0 0 0-.627.207 1.199 1.199 0 0 0-.396.59c-.1.293-.146.601-.138.91-.002.319.039.635.12.943.067.288.2.556.388.785a.9.9 0 0 0 .716.32M83.158 36.993c-.316 0-.63-.05-.93-.145a4.026 4.026 0 0 1-.898-.426l.182-.56c.17.109.346.205.528.29.18.083.367.15.559.2.188.05.382.075.577.076a.999.999 0 0 0 .402-.076.627.627 0 0 0 .264-.22.628.628 0 0 0 .088-.326.459.459 0 0 0-.082-.27.923.923 0 0 0-.232-.239 3.76 3.76 0 0 0-.408-.25l-.157-.076-.163-.075a6.911 6.911 0 0 1-.748-.409 1.815 1.815 0 0 1-.49-.49 1.193 1.193 0 0 1-.2-.69c-.007-.258.075-.51.232-.716.163-.21.38-.373.628-.47.295-.11.608-.164.923-.158.287 0 .573.042.848.126.263.08.512.198.74.352l-.194.546a2.284 2.284 0 0 0-.69-.34 2.334 2.334 0 0 0-.73-.125.753.753 0 0 0-.345.07.628.628 0 0 0-.238.194.483.483 0 0 0-.082.282c.002.111.047.217.126.296.09.1.196.184.314.25.162.096.33.182.502.258H83.591c.27.124.528.271.772.44.197.136.364.311.49.515.124.215.187.46.182.71.005.27-.083.534-.251.746a1.514 1.514 0 0 1-.672.496 2.663 2.663 0 0 1-.973.17M87.245 32.66h-1.488v-.62h4.182v.62h-1.482v4.245h-1.212v-4.244ZM92.871 36.987a2.713 2.713 0 0 1-1.306-.308 2.298 2.298 0 0 1-.91-.873 2.511 2.511 0 0 1-.333-1.293c-.006-.46.108-.912.333-1.313a2.31 2.31 0 0 1 .942-.91 2.902 2.902 0 0 1 1.412-.333c.271.002.54.044.798.126.253.073.49.19.703.345l-.2.578a2.034 2.034 0 0 0-.566-.302 1.972 1.972 0 0 0-.678-.106 1.287 1.287 0 0 0-.791.245c-.227.173-.4.409-.496.678a2.669 2.669 0 0 0-.17.98c-.008.348.05.695.17 1.023.096.248.26.465.47.628.205.146.452.224.704.22.09.01.18.01.27 0 .075-.013.149-.034.22-.063a.696.696 0 0 0 .182-.082v-1.381h-.88v-.56H94.8v2.186h-.038a8.323 8.323 0 0 1-.559.264 3.02 3.02 0 0 1-.565.17 4.39 4.39 0 0 1-.747.062M96.111 32.04h1.784c.377-.011.753.055 1.105.194.278.112.517.301.69.546.16.23.243.505.239.785.001.248-.07.49-.207.697-.148.213-.352.38-.59.483a2.135 2.135 0 0 1-.905.176h-.571v-.377h.094c.177.006.352-.033.509-.113a.772.772 0 0 0 .301-.332c.074-.164.11-.342.107-.521a1.168 1.168 0 0 0-.1-.484.772.772 0 0 0-.314-.32 1.131 1.131 0 0 0-.528-.12h-.39v4.251h-1.211l-.013-4.866Zm1.42 2.51 1.255.183 1.4 2.179h-1.412L97.53 34.55ZM102.673 32.04h.961l1.883 4.865h-1.255l-1.413-4h.182l-1.444 4h-.722l1.808-4.866Zm-.885 3.139h2.26v.533h-2.26v-.533ZM106.56 32.039h1.664a3.81 3.81 0 0 1 1.526.27c.399.163.735.449.96.816a2.923 2.923 0 0 1 0 2.688c-.224.369-.561.657-.96.822a3.886 3.886 0 0 1-1.539.27h-1.651V32.04Zm1.783 4.244c.273.012.543-.056.779-.194.215-.146.379-.354.471-.597.112-.325.165-.667.157-1.01.009-.351-.046-.7-.164-1.03a1.198 1.198 0 0 0-.471-.628 1.41 1.41 0 0 0-.772-.195h-.565v3.623l.565.031ZM114.183 36.987a2.561 2.561 0 0 1-1.099-.214 1.544 1.544 0 0 1-.71-.628c-.17-.3-.255-.64-.245-.985v-3.14h1.206v3.14c-.008.216.035.431.126.628.08.16.207.29.364.376.175.087.369.13.565.126a1.11 1.11 0 0 0 .59-.145.929.929 0 0 0 .383-.408c.092-.196.139-.41.138-.628v-3.07h.685v3.026c.011.358-.064.714-.22 1.036a1.5 1.5 0 0 1-.666.628c-.349.163-.732.24-1.117.226M118.76 32.04h.961l1.883 4.865h-1.255l-1.413-4h.182l-1.438 4h-.728l1.808-4.866Zm-.879 3.139h2.254v.533h-2.254v-.533ZM122.948 32.66h-1.488v-.62h4.176v.62h-1.476v4.245h-1.212v-4.244ZM126.715 32.04h3.372v.62h-2.16v1.47h1.482v.565h-1.482v1.589h2.267v.621h-3.479V32.04ZM72.288 44.66c-.315 0-.628-.05-.929-.144a4.026 4.026 0 0 1-.898-.427l.182-.56c.17.11.346.206.528.29.18.083.367.15.559.2.188.05.382.075.577.076a.999.999 0 0 0 .402-.075.628.628 0 0 0 .264-.22.627.627 0 0 0 .088-.327.458.458 0 0 0-.082-.27.923.923 0 0 0-.232-.238 3.017 3.017 0 0 0-.408-.245l-.157-.082-.163-.075a6.911 6.911 0 0 1-.748-.408 1.814 1.814 0 0 1-.49-.49 1.175 1.175 0 0 1-.2-.684c-.007-.26.075-.515.232-.723.162-.21.38-.37.628-.464.294-.115.607-.17.923-.163.287 0 .573.042.847.125.264.08.513.199.742.352l-.195.546a2.622 2.622 0 0 0-.69-.339 2.51 2.51 0 0 0-.73-.126.847.847 0 0 0-.345.07.626.626 0 0 0-.238.194.483.483 0 0 0-.049.443c.022.05.053.096.093.135.09.1.196.185.314.25.162.096.33.182.502.258H72.722c.27.124.528.272.772.44.197.136.364.311.49.515.124.215.187.46.182.71a1.2 1.2 0 0 1-.251.753 1.55 1.55 0 0 1-.672.49 2.663 2.663 0 0 1-.973.17M77.563 44.654c-.45.01-.896-.096-1.293-.308a2.11 2.11 0 0 1-.873-.867 2.913 2.913 0 0 1 0-2.63c.21-.384.53-.696.916-.898.425-.227.9-.34 1.382-.327a3.1 3.1 0 0 1 .546.05c.179.035.353.088.521.157.164.06.318.143.459.245l-.208.578a2.166 2.166 0 0 0-.577-.29 2.19 2.19 0 0 0-.672-.1 1.256 1.256 0 0 0-.747.233c-.216.16-.384.378-.484.628-.112.31-.168.637-.163.967-.006.33.052.658.17.967.105.252.28.47.502.628.238.162.522.246.81.238.254 0 .504-.056.734-.163.238-.102.451-.252.628-.44l.22.54c-.217.248-.49.44-.797.56a2.82 2.82 0 0 1-1.055.188M80.558 39.706h1.218v4.866h-1.218v-4.866Zm1.055 2.097h2.16v.628h-2.16v-.628Zm1.99-2.097h1.212v4.866h-1.212v-4.866ZM88.545 44.654a2.549 2.549 0 0 1-1.294-.314 2.179 2.179 0 0 1-.866-.886 2.914 2.914 0 0 1 0-2.605c.2-.374.5-.685.866-.898a2.55 2.55 0 0 1 1.294-.32c.454-.01.902.101 1.3.32.374.206.681.516.885.891.21.399.316.844.308 1.294.01.456-.096.908-.308 1.312a2.222 2.222 0 0 1-.879.892c-.4.217-.85.326-1.306.314Zm.038-.628a.991.991 0 0 0 .627-.207c.19-.152.332-.354.409-.584.095-.292.142-.598.138-.904 0-.323-.043-.644-.126-.955a1.885 1.885 0 0 0-.395-.785.918.918 0 0 0-.722-.32.972.972 0 0 0-.628.207c-.186.155-.324.36-.396.59-.1.293-.146.602-.138.91-.001.319.039.635.12.943.067.288.2.556.389.785a.898.898 0 0 0 .715.32M94.51 44.654a2.568 2.568 0 0 1-1.3-.314 2.261 2.261 0 0 1-.866-.886 2.756 2.756 0 0 1-.308-1.3 2.713 2.713 0 0 1 .314-1.305c.198-.375.499-.687.867-.898a2.55 2.55 0 0 1 1.293-.32c.454-.01.902.101 1.3.32.372.206.677.516.879.891.212.398.32.843.314 1.294.008.457-.1.908-.314 1.312a2.21 2.21 0 0 1-.873.892c-.4.216-.85.325-1.306.314Zm0-.628a.998.998 0 0 0 .628-.207c.187-.152.327-.355.402-.584a2.63 2.63 0 0 0 .138-.904 3.715 3.715 0 0 0-.12-.955 1.94 1.94 0 0 0-.401-.785.899.899 0 0 0-.716-.32.98.98 0 0 0-.628.207c-.186.155-.323.36-.396.59a2.79 2.79 0 0 0-.131.91c0 .318.037.634.113.943.072.287.207.555.395.785a.885.885 0 0 0 .71.32M98.259 39.706h1.212v4.245h1.952v.621h-3.164v-4.866ZM72.998 52.327a2.594 2.594 0 0 1-1.3-.32 2.261 2.261 0 0 1-.866-.886 2.888 2.888 0 0 1 0-2.606c.2-.372.5-.68.866-.892a2.51 2.51 0 0 1 1.294-.326c.453-.009.902.102 1.3.32.372.207.677.517.879.892.215.399.323.846.313 1.3.01.454-.096.903-.307 1.306a2.223 2.223 0 0 1-.88.891c-.399.22-.85.33-1.305.32m0-.627a.998.998 0 0 0 .628-.208c.187-.152.326-.354.401-.584a2.63 2.63 0 0 0 .139-.904 3.72 3.72 0 0 0-.12-.954 2.016 2.016 0 0 0-.395-.785.917.917 0 0 0-.722-.32.967.967 0 0 0-.628.207 1.256 1.256 0 0 0-.402.59 2.811 2.811 0 0 0-.132.91c-.002.318.038.635.12.942.067.289.2.557.389.785a.892.892 0 0 0 .71.32M76.746 47.373h3.391v.621h-2.173v1.551h1.457v.59h-1.456v2.11h-1.219v-4.872ZM84.734 47.373l1.224 2.781.15.383.126-.358 1.225-2.806h1.212v4.872h-1.206v-2.668l.025-.898-1.35 3.114-.609.038-1.413-3.146.025 1.212v2.348h-.69v-4.872h1.28ZM90.19 47.373h3.372V48h-2.16v1.469h1.482v.559h-1.482v1.588h2.267v.628H90.19v-4.872ZM94.805 47.372h1.664a3.841 3.841 0 0 1 1.532.27c.396.165.73.45.955.816.232.41.347.874.332 1.344.018.47-.098.936-.332 1.344-.225.37-.562.657-.961.822a3.873 3.873 0 0 1-1.538.277h-1.652v-4.873Zm1.783 4.245a1.42 1.42 0 0 0 .78-.195c.214-.145.379-.353.47-.596.116-.322.169-.663.157-1.005a2.858 2.858 0 0 0-.157-1.036 1.212 1.212 0 0 0-.477-.596 1.413 1.413 0 0 0-.773-.195h-.577v3.623h.578ZM101.763 47.373h-1.219v4.872h1.219v-4.872ZM105.492 52.32a2.62 2.62 0 0 1-1.3-.307 2.1 2.1 0 0 1-.866-.867 2.603 2.603 0 0 1-.308-1.293 2.744 2.744 0 0 1 .32-1.338c.21-.38.527-.693.911-.898a2.865 2.865 0 0 1 1.381-.326c.186 0 .371.019.553.056.176.032.349.082.515.151.163.06.317.143.458.245l-.201.578a2.108 2.108 0 0 0-1.256-.39 1.254 1.254 0 0 0-.753.233 1.44 1.44 0 0 0-.477.628 2.891 2.891 0 0 0 0 1.934 1.378 1.378 0 0 0 1.306.866c.256 0 .508-.055.741-.163.235-.105.449-.254.627-.44l.22.54c-.22.248-.495.44-.804.56-.334.128-.69.192-1.048.188M109.705 47.373h-1.218v4.872h1.218v-4.872ZM111.865 48.716l.044 1.162v2.36h-.697v-4.865h1.062l2.373 3.334-.044-.942v-2.392h.697v4.866l-.904.006-2.531-3.529ZM116.813 47.373h3.372V48h-2.16v1.469h1.482v.559h-1.482v1.588h2.267v.628h-3.479v-4.872ZM109.668 3.576V19.35a.483.483 0 0 1-.967 0V2.95a.474.474 0 0 1 .483-.484h3.253a.473.473 0 0 1 .452.308l5.186 12.922 5.105-12.929a.48.48 0 0 1 .446-.301h3.039a.485.485 0 0 1 .484.483v16.408a.492.492 0 0 1-.484.49h-2.361a.483.483 0 0 1-.483-.49V3.576l-6.279 15.911a.491.491 0 0 1-.452.308h-.678a.486.486 0 0 1-.453-.308l-6.291-15.91ZM92.382 14.765h1.777a.477.477 0 0 1 .477.427c.27 2.625 1.74 4.163 4.288 4.163 2.38 0 4.27-1.212 4.27-3.303 0-1.808-1.369-2.68-3.9-3.371l-1.883-.522c-3.14-.847-4.79-2.065-4.79-4.772 0-3.177 2.9-5.262 6.404-5.262 3.334 0 5.745 1.476 6.354 4.138a.491.491 0 0 1-.101.403.486.486 0 0 1-.376.175h-1.67a.485.485 0 0 1-.477-.42c-.289-2.205-1.558-3.523-3.73-3.523-2.286 0-3.975 1.337-3.975 3.252 0 1.664 1.043 2.512 3.353 3.102l2.16.572c3.14.816 5.162 2.084 5.162 5.023 0 3.598-3.253 5.312-6.775 5.312-3.768 0-6.455-1.601-7.027-4.797a.49.49 0 0 1 .484-.565M71.284 2.427h2.417a.49.49 0 0 1 .484.483v16.42a.484.484 0 0 1-.484.484h-2.417a.478.478 0 0 1-.484-.484V2.91a.483.483 0 0 1 .484-.483ZM77.802 2.854a.427.427 0 0 1 .426-.42h5.363a9.256 9.256 0 0 1 3.698.627 4.923 4.923 0 0 1 2.254 1.815 4.86 4.86 0 0 1 .754 2.693 4.703 4.703 0 0 1-.86 2.814 5.437 5.437 0 0 1-2.418 1.833 9.375 9.375 0 0 1-3.635.628h-.835v-.76h.414a4.03 4.03 0 0 0 2.09-.508 3.246 3.246 0 0 0 1.307-1.507 6.17 6.17 0 0 0 .458-2.512 5.178 5.178 0 0 0-.496-2.33 3.522 3.522 0 0 0-1.425-1.507 4.395 4.395 0 0 0-2.192-.527h-1.6v16.162a.427.427 0 0 1-.428.421h-2.449a.427.427 0 0 1-.426-.42V2.853Z"/><path fill="#313131" d="M82.712 12.894h-.515a.383.383 0 0 1 0-.76h.521a.382.382 0 1 1 0 .76"/><mask id="b" width="59" height="54" x="0" y="0" maskUnits="userSpaceOnUse" style="mask-type:luminance"><path fill="#fff" d="M7.193.129A6.593 6.593 0 0 0 .607 6.716v22.9C.607 45.551 29.49 53.87 29.49 53.87s28.884-8.106 28.884-24.042V6.716A6.593 6.593 0 0 0 51.781.123L7.193.129Z"/></mask><g stroke="#32A8E3" stroke-linecap="round" stroke-linejoin="round" stroke-width="1.407" mask="url(#b)"><path d="M64.666 1.297H-7.657M64.665 5.517H-7.657M64.665 9.736H-7.657M64.665 13.956H-7.657M64.665 18.175H-7.657M64.665 22.388H-7.657M64.665 26.608H-7.657M64.665 30.827H-7.657M64.665 35.047H-7.657M64.665 39.267H-7.657M64.665 43.48H-7.657M64.665 47.7H-7.657M64.665 51.919H-7.657"/></g><mask id="c" width="32" height="54" x="20" y="0" maskUnits="userSpaceOnUse" style="mask-type:luminance"><path fill="#fff" d="M29.453.681c-.183.163-.365.327-.54.503a10.047 10.047 0 0 0 1.638 15.49l5.45 3.868-8.495 5.494a15.567 15.567 0 0 0-7.064 11.629l-.056 12.746a74.883 74.883 0 0 0 9.067 3.466s13.688-3.842 22.209-11.44v-4.772h-.151a15.567 15.567 0 0 0-7.064-11.629L35.97 20.53l5.444-3.867A10.047 10.047 0 0 0 42.488.643L29.453.68Z"/></mask><g stroke="#313131" stroke-linecap="round" stroke-linejoin="round" stroke-width="1.852" mask="url(#c)"><path d="M64.107 2.779H14.465M64.107 6.998H14.465M64.107 11.218H14.465M64.107 15.43H14.465M64.107 19.65H14.465M64.107 23.87H14.465M64.107 28.09H14.465M64.107 32.31H14.465M64.107 36.523H14.465M64.107 40.742H14.465M64.107 44.961H14.465M64.107 49.18H14.465M64.107 53.394H14.465"/></g><mask id="d" width="24" height="43" x="35" y="0" maskUnits="userSpaceOnUse" style="mask-type:luminance"><path fill="#fff" d="M43.053 1.184a10.047 10.047 0 0 1-1.639 15.49l-5.444 3.53v.326l8.49 5.494a15.567 15.567 0 0 1 7.064 11.629l.037 4.873c3.912-3.454 6.77-7.692 6.77-12.703V6.716A6.58 6.58 0 0 0 54.386.682h-.628L42.457.65c.194.17.383.34.565.528"/></mask><g stroke="#313131" stroke-linecap="round" stroke-linejoin="round" stroke-width="4.326" mask="url(#d)"><path d="M64.747.688H8.67M64.747 4.901H8.67M64.747 9.12H8.67M64.747 13.34H8.67M64.747 17.56H8.67M64.747 21.78H8.67M64.747 25.993H8.67M64.747 30.212H8.67M64.747 34.432H8.67M64.747 38.651H8.67M64.747 42.864H8.67"/></g></g><defs><clipPath id="a"><path fill="#fff" d="M0 0h132v54H0z"/></clipPath></defs></svg>
