<svg xmlns="http://www.w3.org/2000/svg" version="1.1" xmlns:xlink="http://www.w3.org/1999/xlink" xmlns:svgjs="http://svgjs.com/svgjs" width="120" height="120"><svg width="120" height="120" viewBox="0 0 120 120" fill="none" xmlns="http://www.w3.org/2000/svg">
<circle cx="60" cy="60" r="60" fill="white"></circle>
<path fill-rule="evenodd" clip-rule="evenodd" d="M84.2265 37.4259V18.9667H34.7736V37.4259H15V83.5741H34.7736V102.033H84.2265V83.5741H104V37.4259H84.2265ZM64.3768 78.8528L61.8671 70.4751C63.2741 68.1854 63.2361 65.3633 61.7721 62.9316C60.1369 60.1983 56.9237 58.4766 53.7676 58.4766C51.429 58.4943 46.9609 59.5415 43.3104 66.02C43.1013 66.3395 43.2534 66.7833 43.6146 66.943C43.9569 67.1205 44.4132 66.9962 44.6223 66.6767C47.075 62.3282 50.3452 59.932 53.8056 59.8788C56.5054 59.861 59.1292 61.3165 60.4982 63.6061C61.7721 65.7183 61.753 68.0435 60.4602 69.9959C60.4602 69.9959 60.4602 69.9959 60.4602 70.0314H60.4411C59.0152 72.6405 54.5851 74.1847 49.9079 73.7055C49.8319 73.7055 49.7748 73.7055 49.6988 73.7232C49.1474 73.812 48.7671 74.3444 48.8052 74.9124C48.8622 75.4626 49.2615 75.8531 49.8129 75.8709L61.0306 76.4921C61.8861 76.4921 62.2854 77.1133 62.2854 77.7168C62.2854 78.2493 61.9242 78.835 60.9165 78.835C60.7644 78.835 45.0596 78.8883 35.8003 78.835C35.5531 78.835 34.9257 78.764 34.3743 78.1783C33.899 77.6991 33.3856 76.7051 33.6138 74.8059C35.6862 57.1986 44.8314 50.1522 50.8776 45.5019C53.3683 43.6027 55.3076 42.0762 56.3343 40.3368C59.2814 35.2428 62.1903 34.6926 63.2931 34.6748C63.6544 34.6748 63.9586 34.4441 64.0346 34.1246C64.3008 32.8644 65.8408 31.2314 66.5063 30.9829C66.5063 31.1072 66.5443 31.3557 66.4683 31.8349C66.3352 32.6691 66.5253 33.3791 67.0006 33.9293C67.7422 34.799 68.9019 34.941 68.997 34.941C71.1835 35.2605 72.4574 36.6805 72.3243 38.6506C72.2102 40.6563 73.6362 41.7035 74.7009 42.094C74.758 42.5555 74.7009 43.5139 74.1115 44.3304C73.408 45.3244 72.2673 45.7859 70.6892 45.6794C67.8182 45.5374 65.4416 44.7564 65.4035 44.7564C65.1754 44.6676 64.9092 44.7032 64.7191 44.8451C61.6009 46.9573 60.8024 50.1877 62.5516 53.5245L62.7798 53.9328C63.2551 54.7492 64.0536 56.1159 64.2438 57.8199C64.8902 62.7187 64.8712 74.3799 64.8712 74.4154C64.7191 75.8709 65.2514 76.9713 65.7648 77.77C65.8218 77.8943 65.8979 78.0008 65.9549 78.1073C66.012 78.1783 66.05 78.2493 66.088 78.3203C66.1831 78.4445 66.2781 78.5865 66.3352 78.693C66.088 78.764 65.5366 78.8173 64.4529 78.835M83.542 78.835H73.5031C70.442 78.8705 68.2365 78.7285 67.1718 77.2908C67.1337 77.2198 67.0957 77.1488 67.0387 77.0778C66.7535 76.5986 66.5633 75.9774 66.5063 75.1964V72.7115C66.5063 72.0015 66.7535 71.4691 67.2098 71.2028C67.59 71.0076 68.0844 71.0253 68.4456 71.2028C68.8639 71.4336 69.0921 71.8773 69.0921 72.4453L69.2062 75.0722C69.2632 76.2614 70.3089 77.0601 71.906 77.0956C72.3813 77.1311 72.6475 76.7939 72.6855 76.4034C72.6855 76.0306 72.3433 75.7112 71.944 75.7112C71.5828 75.6934 70.7272 75.6224 70.6892 75.0189L70.5941 72.4453C70.5941 71.3803 70.0808 70.4928 69.2062 70.0136C68.3506 69.5521 67.3049 69.5521 66.4873 70.0136C66.4303 70.0314 66.3922 70.1024 66.3352 70.1201C66.2972 66.2153 66.1451 60.713 65.7458 57.6246C65.4796 55.69 64.624 54.1813 64.1107 53.2761L63.9015 52.8856C62.5326 50.2942 63.0459 47.8803 65.2895 46.1763C66.107 46.4248 68.1795 46.9573 70.5941 47.0815C71.7159 47.1525 72.5524 46.9396 73.2749 46.6733C75.8607 50.7024 74.4728 52.2643 72.9327 53.8795C72.0581 54.8025 71.1645 55.7609 71.1835 57.0921C71.1835 59.6658 73.5792 60.5887 76.1269 61.5472C80.5189 63.2156 85.4623 65.0793 82.116 75.7112H74.7389C73.8073 73.457 73.6362 71.7353 74.2256 70.6349C74.6439 69.8894 75.4044 69.3924 76.6022 69.1439C77.0015 69.0551 77.2297 68.6824 77.1536 68.2919C77.0585 67.937 76.6783 67.724 76.26 67.795C74.6249 68.1499 73.5031 68.8954 72.8947 70.0136C72.0581 71.5933 72.2482 73.7765 73.5601 76.6519C73.6742 76.9181 73.9404 77.0956 74.2446 77.0956H82.6484C82.9716 77.0956 83.2568 76.9004 83.3519 76.5986C83.485 76.2081 83.58 75.8354 83.6751 75.4627C85.044 75.9241 85.6144 76.7938 85.5193 77.5216C85.4053 78.3025 84.6447 78.7995 83.504 78.7995" fill="#1F334E"></path>
</svg><style>@media (prefers-color-scheme: light) { :root { filter: none; } }
</style></svg>