<svg xmlns="http://www.w3.org/2000/svg" xmlns:xlink="http://www.w3.org/1999/xlink"><defs><symbol viewBox="0 0 12 7" fill="none" id="arrow-down"><path d="M0 0.499999L12 0.5L6 6.5L0 0.499999Z" fill="currentColor" /></symbol><symbol viewBox="0 0 14 8" fill="none" id="btn-arrow"><path d="M1 4H13M13 4L9.86957 1M13 4L9.86957 7" stroke="currentColor" stroke-linecap="round" stroke-linejoin="round" /></symbol><symbol viewBox="0 0 16 16" fill="none" id="burger"><g clip-path="url(#burger_clip0_71_26115)"><path fill-rule="evenodd" clip-rule="evenodd" d="M-0.0429688 2.9999C-0.0429688 2.66853 0.22566 2.3999 0.557031 2.3999H15.4226C15.7539 2.3999 16.0226 2.66853 16.0226 2.9999C16.0226 3.33127 15.7539 3.5999 15.4226 3.5999H0.557031C0.22566 3.5999 -0.0429688 3.33127 -0.0429688 2.9999ZM-0.0429688 8.0001C-0.0429688 7.66873 0.22566 7.4001 0.557031 7.4001H15.4226C15.7539 7.4001 16.0226 7.66873 16.0226 8.0001C16.0226 8.33147 15.7539 8.6001 15.4226 8.6001H0.557031C0.22566 8.6001 -0.0429688 8.33147 -0.0429688 8.0001ZM-0.0429688 13.0001C-0.0429688 12.6687 0.22566 12.4001 0.557031 12.4001H15.4226C15.7539 12.4001 16.0226 12.6687 16.0226 13.0001C16.0226 13.3315 15.7539 13.6001 15.4226 13.6001H0.557031C0.22566 13.6001 -0.0429688 13.3315 -0.0429688 13.0001Z" fill="currentColor" /></g><defs></defs></symbol><clipPath id="burger_clip0_71_26115"><rect fill="currentColor" /></clipPath><symbol viewBox="0 0 40 40" fill="none" id="comp-icon-1"><path opacity="0.6" d="M37.6927 20.307C37.6927 24.9994 35.8286 29.4997 32.5106 32.8177C29.1925 36.1357 24.6923 37.9998 19.9999 37.9998C15.3075 37.9998 10.8073 36.1357 7.48922 32.8177C4.17118 29.4997 2.30713 24.9994 2.30713 20.307L19.9999 20.307H37.6927Z" fill="currentColor" /><path opacity="0.3" d="M2.30713 2H2.50843C11.8973 2 19.5084 9.61116 19.5084 19V37.877C10.0084 37.877 2.30713 30.1757 2.30713 20.6757V2Z" fill="currentColor" /></symbol><symbol viewBox="0 0 40 40" fill="none" id="comp-icon-2"><path opacity="0.3" d="M37.6927 20.7188C37.6927 25.4112 35.8286 29.9114 32.5106 33.2294C29.1925 36.5475 24.6923 38.4115 19.9999 38.4115C15.3075 38.4115 10.8073 36.5475 7.48922 33.2294C4.17119 29.9114 2.30713 25.4112 2.30713 20.7188L37.6927 20.7188Z" fill="currentColor" /><circle opacity="0.6" cx="10.4661" cy="9.55981" r="8.15894" fill="currentColor" /><rect opacity="0.3" x="21.375" y="1.40088" fill="currentColor" /></symbol><symbol viewBox="0 0 40 40" fill="none" id="comp-icon-3"><g clip-path="url(#comp-icon-3_clip0_37_6438)"><circle opacity="0.3" cx="13.3333" cy="13.3333" r="13.3333" fill="currentColor" /><circle opacity="0.6" cx="26.6668" cy="26.6668" r="13.3333" fill="currentColor" /></g><defs></defs></symbol><clipPath id="comp-icon-3_clip0_37_6438"><rect fill="currentColor" /></clipPath><symbol viewBox="0 0 40 40" fill="none" id="comp-icon-4"><circle opacity="0.3" cx="20" cy="20" r="17" fill="currentColor" /><circle opacity="0.6" cx="20" cy="20" r="8" fill="currentColor" /></symbol><symbol viewBox="0 0 40 40" fill="none" id="comp-icon-5"><path opacity="0.6" d="M3.50009 15.1353L27.984 40.0001H3.50009V15.1353Z" fill="currentColor" /><circle opacity="0.3" cx="20.25" cy="16.75" r="16.75" fill="currentColor" /></symbol><symbol viewBox="0 0 40 40" fill="none" id="comp-icon-6"><path opacity="0.3" d="M20.525 1.52625C25.4245 1.52624 30.1234 3.47257 33.5879 6.93706C37.0524 10.4016 38.9987 15.1004 38.9987 19.9999C38.9987 24.8995 37.0524 29.5983 33.5879 33.0628C30.1234 36.5273 25.4245 38.4736 20.525 38.4736L20.525 1.52625Z" fill="currentColor" /><path opacity="0.3" d="M17.5752 37.6239C15.3987 37.6239 13.2435 37.1952 11.2326 36.3623C9.22181 35.5294 7.39473 34.3085 5.8557 32.7695C4.31668 31.2305 3.09586 29.4034 2.26295 27.3926C1.43004 25.3817 1.00134 23.2266 1.00134 21.05L17.5752 21.0501V37.6239Z" fill="currentColor" /><rect opacity="0.6" x="1.0014" y="1.52661" fill="currentColor" /></symbol><symbol viewBox="0 0 40 40" fill="none" id="comp-icon-7"><g clip-path="url(#comp-icon-7_clip0_37_6460)"><circle opacity="0.3" cx="4.6875" cy="20" r="18" fill="currentColor" /><circle opacity="0.6" cx="35.3125" cy="20" r="18" fill="currentColor" /></g><defs></defs></symbol><clipPath id="comp-icon-7_clip0_37_6460"><rect fill="currentColor" /></clipPath><symbol viewBox="0 0 9 9" fill="none" id="cross"><path fill-rule="evenodd" clip-rule="evenodd" d="M8.84985 0.875123C9.05005 0.674926 9.05005 0.350344 8.84985 0.150147C8.64966 -0.0500492 8.32507 -0.0500491 8.12488 0.150147L4.5 3.77502L0.875123 0.150147C0.674927 -0.050049 0.350344 -0.0500492 0.150148 0.150147C-0.0500487 0.350344 -0.0500485 0.674926 0.150148 0.875123L3.77502 4.5L0.150148 8.12488C-0.0500494 8.32507 -0.050049 8.64966 0.150148 8.84985C0.350344 9.05005 0.674926 9.05005 0.875123 8.84985L4.5 5.22498L8.12488 8.84985C8.32507 9.05005 8.64966 9.05005 8.84985 8.84985C9.05005 8.64966 9.05005 8.32507 8.84985 8.12488L5.22498 4.5L8.84985 0.875123Z" fill="currentColor" /></symbol><symbol viewBox="0 0 12 2" fill="none" id="minus"><path fill-rule="evenodd" clip-rule="evenodd" d="M0 1C0 0.723858 0.223858 0.5 0.5 0.5H11.5C11.7761 0.5 12 0.723858 12 1C12 1.27614 11.7761 1.5 11.5 1.5H0.5C0.223858 1.5 0 1.27614 0 1Z" fill="currentColor" /></symbol><symbol viewBox="0 0 12 12" fill="none" id="plus"><path fill-rule="evenodd" clip-rule="evenodd" d="M6.5 0.5C6.5 0.223858 6.27614 0 6 0C5.72386 0 5.5 0.223858 5.5 0.5V5.5H0.5C0.223858 5.5 0 5.72386 0 6C0 6.27614 0.223858 6.5 0.5 6.5H5.5V11.5C5.5 11.7761 5.72386 12 6 12C6.27614 12 6.5 11.7761 6.5 11.5V6.5H11.5C11.7761 6.5 12 6.27614 12 6C12 5.72386 11.7761 5.5 11.5 5.5H6.5V0.5Z" fill="currentColor" /></symbol></defs></svg>